# xmcd CD database file
#
# Track frame offsets:
#	150
#	23603
#	49119
#	71585
#	91208
#	108595
#	126248
#	142870
#	164302
#	185442
#	202749
#
# Disc length: 2907 seconds
#
# Revision: 0
# Processed by: cddbd v1.5.2PL0 Copyright (c) Steve Scherf et al.
# Submitted via: CDex 2.09
#
DISCID=8c0b590b
DTITLE=Sugar Pie DeSanto - Classic Sugar Pie
DYEAR=1997
DGENRE=Blues
TTITLE0=Bread and Butter
TTITLE1=I Still Care
TTITLE2=Jump In My Chest
TTITLE3=I Don't Want To Fuss
TTITLE4=Use What You Got
TTITLE5=Don't Worry About Me
TTITLE6=Mama Didn't Raise No Fool
TTITLE7=Crazy Lovin'
TTITLE8=Ask Me
TTITLE9=There's Gonna Be Trouble
TTITLE10=Never Say Die
EXTD=YEAR: 1997
EXTT0=
EXTT1=
EXTT2=
EXTT3=
EXTT4=
EXTT5=
EXTT6=
EXTT7=
EXTT8=
EXTT9=
EXTT10=
PLAYORDER=
